<svg viewBox="0 0 120 164" width="120" height="164" xmlns="http://www.w3.org/2000/svg" xmlns:xlink="http://www.w3.org/1999/xlink"><text x="60" y="28" text-anchor="middle" font-size="16">A</text><path d="M 20 48 v 96 M 36 48 v 96 M 52 48 v 96 M 68 48 v 96 M 84 48 v 96 M 100 48 v 96" stroke="#000" shape-rendering="crispEdges" stroke-linecap="square"/><path d="M 20 48 h 80 M 20 80 h 80 M 20 112 h 80 M 20 144 h 80" stroke="#000" shape-rendering="crispEdges" stroke-linecap="square"/><path d="M 17 48 h 86" stroke="#000" stroke-width="6" shape-rendering="crispEdges" stroke-linecap="round"/><path d="M 20 39 m -3 -3 l 6 6 m -6 0 l 6 -6" stroke="#000" stroke-width="1.5" stroke-linecap="round"/><circle cx="36" cy="39" r="3" fill="none" stroke="#000" stroke-width="1.5"/><circle cx="52" cy="96" r="7"/><circle cx="68" cy="96" r="7"/><circle cx="84" cy="96" r="7"/><circle cx="100" cy="39" r="3" fill="none" stroke="#000" stroke-width="1.5"/></svg>